<?xml version="1.0" encoding="UTF-8" standalone="no"?>
<svg xmlns:sketch="http://www.bohemiancoding.com/sketch/ns" width="64px" height="64px" viewBox="0 0 64 64" version="1.1"
     xmlns="http://www.w3.org/2000/svg">

    <title>Drum</title>
    <desc>Created with Sketch.</desc>
    <defs></defs>
    <g id="Page-1" stroke="none" stroke-width="1" fill="none" fill-rule="evenodd" sketch:type="MSPage">
        <g id="Drum" sketch:type="MSArtboardGroup" fill="#000000">
            <path d="M30.7059,31.2917 C30.3169,30.9027 29.6809,30.9027 29.2919,31.2917 C28.9029,31.6807 28.9029,32.3167 29.2919,32.7057 L29.9989,33.4127 C30.3879,33.8017 31.0239,33.8017 31.4129,33.4127 C31.8019,33.0237 31.8019,32.3877 31.4129,31.9987 L30.7059,31.2917 Z M26.9999,37.9997 L25.9999,37.9997 C25.4499,37.9997 24.9999,38.4497 24.9999,38.9997 C24.9999,39.5497 25.4499,39.9997 25.9999,39.9997 L26.9999,39.9997 C27.5499,39.9997 27.9999,39.5497 27.9999,38.9997 C27.9999,38.4497 27.5499,37.9997 26.9999,37.9997 L26.9999,37.9997 Z M53.2939,37.9997 L51.2439,37.9997 C51.7379,36.0827 51.9999,34.0717 51.9999,31.9997 C51.9999,18.7447 41.2549,7.9997 27.9999,7.9997 C14.7449,7.9997 3.9999,18.7447 3.9999,31.9997 C3.9999,45.2547 14.7449,55.9997 27.9999,55.9997 C34.7769,55.9997 40.8929,53.1867 45.2569,48.6707 L46.6619,50.0767 C42.6539,54.2127 37.2909,57.0217 31.2939,57.7837 C30.7989,57.8467 30.2989,57.8947 29.7969,57.9307 C29.7359,57.9347 29.6759,57.9407 29.6159,57.9447 C29.0809,57.9797 28.5429,57.9997 27.9999,57.9997 C27.4569,57.9997 26.9189,57.9797 26.3849,57.9447 C26.3239,57.9407 26.2639,57.9347 26.2039,57.9307 C25.7009,57.8947 25.2009,57.8467 24.7069,57.7837 C17.6539,56.8877 11.4759,53.1607 7.3519,47.7757 C6.9189,47.2097 6.5099,46.6257 6.1239,46.0247 C5.7159,45.3897 5.3339,44.7377 4.9809,44.0667 C4.6419,43.4207 4.3219,42.7627 4.0369,42.0867 C2.7259,38.9827 1.9999,35.5747 1.9999,31.9997 C1.9999,28.4247 2.7259,25.0167 4.0369,21.9137 C4.3219,21.2377 4.6409,20.5797 4.9799,19.9347 C5.3329,19.2637 5.7159,18.6107 6.1239,17.9757 C6.5099,17.3747 6.9189,16.7907 7.3519,16.2257 C11.4759,10.8397 17.6539,7.1117 24.7069,6.2157 C25.2009,6.1537 25.7009,6.1057 26.2039,6.0687 C26.2639,6.0647 26.3239,6.0587 26.3849,6.0547 C26.9189,6.0207 27.4569,5.9997 27.9999,5.9997 C28.5429,5.9997 29.0809,6.0207 29.6159,6.0547 C29.6759,6.0587 29.7359,6.0647 29.7969,6.0687 C30.2989,6.1057 30.7989,6.1537 31.2939,6.2157 C38.3459,7.1117 44.5239,10.8397 48.6489,16.2257 C49.0809,16.7907 49.4899,17.3747 49.8759,17.9747 C50.2839,18.6097 50.6669,19.2627 51.0199,19.9347 C51.3589,20.5797 51.6779,21.2377 51.9629,21.9137 C53.2739,25.0167 53.9999,28.4247 53.9999,31.9997 C53.9999,34.0657 53.7509,36.0727 53.2939,37.9997 L53.2939,37.9997 Z M53.9999,45.9997 C53.9999,47.1047 53.1049,47.9997 51.9999,47.9997 C51.6839,47.9997 51.3889,47.9197 51.1229,47.7887 C51.8699,46.6967 52.5409,45.5477 53.1299,44.3517 C53.6549,44.7117 53.9999,45.3147 53.9999,45.9997 L53.9999,45.9997 Z M39.4139,39.9997 L49.5629,39.9997 C48.6849,42.3587 47.4289,44.5347 45.8709,46.4567 L39.4139,39.9997 Z M32.8269,36.2417 L34.5859,37.9997 L30.9999,37.9997 C30.4499,37.9997 29.9999,38.4497 29.9999,38.9997 C29.9999,39.5497 30.4499,39.9997 30.9999,39.9997 L36.5859,39.9997 L44.5419,47.9557 C40.3559,52.2937 34.4899,54.9997 27.9999,54.9997 C15.3179,54.9997 4.9999,44.6827 4.9999,31.9997 C4.9999,19.3177 15.3179,8.9997 27.9999,8.9997 C40.6819,8.9997 50.9999,19.3177 50.9999,31.9997 C50.9999,34.0757 50.7189,36.0857 50.2009,37.9997 L37.4139,37.9997 L34.2419,34.8277 C33.8529,34.4387 33.2159,34.4387 32.8269,34.8277 C32.4379,35.2157 32.4379,35.8527 32.8269,36.2417 L32.8269,36.2417 Z M49.8759,46.0247 C49.4899,46.6257 49.0809,47.2097 48.6479,47.7747 C48.4379,48.0497 48.2239,48.3227 48.0029,48.5887 L46.5909,47.1757 C48.3229,45.0557 49.6979,42.6327 50.6289,39.9997 L52.7349,39.9997 C52.5059,40.7087 52.2509,41.4057 51.9629,42.0867 C51.6779,42.7627 51.3589,43.4207 51.0189,44.0667 C50.6659,44.7377 50.2839,45.3907 49.8759,46.0247 L49.8759,46.0247 Z M27.9999,61.9997 C26.8959,61.9997 25.9999,61.1047 25.9999,59.9997 C25.9999,59.9727 26.0069,59.9477 26.0079,59.9217 C26.6669,59.9677 27.3299,59.9997 27.9999,59.9997 C28.6709,59.9997 29.3329,59.9677 29.9919,59.9217 C29.9929,59.9477 29.9999,59.9727 29.9999,59.9997 C29.9999,61.1047 29.1049,61.9997 27.9999,61.9997 L27.9999,61.9997 Z M3.9999,47.9997 C2.8959,47.9997 1.9999,47.1047 1.9999,45.9997 C1.9999,45.3147 2.3449,44.7117 2.8699,44.3517 C3.4589,45.5477 4.1299,46.6967 4.8769,47.7887 C4.6119,47.9197 4.3159,47.9997 3.9999,47.9997 L3.9999,47.9997 Z M1.9999,17.9997 C1.9999,16.8957 2.8959,15.9997 3.9999,15.9997 C4.3159,15.9997 4.6119,16.0797 4.8769,16.2107 C4.1299,17.3037 3.4589,18.4517 2.8699,19.6487 C2.3449,19.2877 1.9999,18.6847 1.9999,17.9997 L1.9999,17.9997 Z M27.9999,1.9997 C29.1049,1.9997 29.9999,2.8957 29.9999,3.9997 C29.9999,4.0267 29.9929,4.0517 29.9919,4.0787 C29.3329,4.0317 28.6709,3.9997 27.9999,3.9997 C27.3299,3.9997 26.6669,4.0317 26.0079,4.0787 C26.0069,4.0517 25.9999,4.0267 25.9999,3.9997 C25.9999,2.8957 26.8959,1.9997 27.9999,1.9997 L27.9999,1.9997 Z M51.9999,15.9997 C53.1049,15.9997 53.9999,16.8957 53.9999,17.9997 C53.9999,18.6847 53.6549,19.2877 53.1299,19.6487 C52.5409,18.4517 51.8699,17.3037 51.1229,16.2107 C51.3889,16.0797 51.6839,15.9997 51.9999,15.9997 L51.9999,15.9997 Z M62.9999,37.9997 L55.3489,37.9997 C55.7709,36.0667 55.9999,34.0607 55.9999,31.9997 C55.9999,28.2757 55.2669,24.7247 53.9469,21.4737 C55.1659,20.7887 55.9999,19.4987 55.9999,17.9997 C55.9999,15.7907 54.2089,13.9997 51.9999,13.9997 C51.2359,13.9997 50.5269,14.2187 49.9239,14.5937 C45.5739,9.1227 39.2249,5.3177 31.9789,4.2867 C31.9849,4.1907 31.9999,4.0977 31.9999,3.9997 C31.9999,1.7907 30.2089,-0.0003 27.9999,-0.0003 C25.7909,-0.0003 23.9999,1.7907 23.9999,3.9997 C23.9999,4.0977 24.0149,4.1907 24.0219,4.2867 C16.7749,5.3177 10.4259,9.1227 6.0769,14.5937 C5.4729,14.2187 4.7639,13.9997 3.9999,13.9997 C1.7909,13.9997 -0.0001,15.7907 -0.0001,17.9997 C-0.0001,19.4987 0.8339,20.7887 2.0539,21.4737 C0.7339,24.7247 -0.0001,28.2757 -0.0001,31.9997 C-0.0001,35.7247 0.7339,39.2757 2.0539,42.5257 C0.8339,43.2117 -0.0001,44.5017 -0.0001,45.9997 C-0.0001,48.2087 1.7909,49.9997 3.9999,49.9997 C4.7639,49.9997 5.4729,49.7807 6.0759,49.4067 C10.4259,54.8767 16.7749,58.6827 24.0219,59.7137 C24.0149,59.8097 23.9999,59.9027 23.9999,59.9997 C23.9999,62.2087 25.7909,63.9997 27.9999,63.9997 C30.2089,63.9997 31.9999,62.2087 31.9999,59.9997 C31.9999,59.9027 31.9849,59.8097 31.9789,59.7137 C38.2609,58.8197 43.8689,55.8407 48.0849,51.4987 L55.4549,58.8687 C55.8439,59.2577 56.4799,59.2577 56.8689,58.8687 C57.2579,58.4797 57.2579,57.8437 56.8689,57.4547 L49.4289,50.0147 C49.5979,49.8147 49.7609,49.6117 49.9239,49.4067 C50.5269,49.7807 51.2359,49.9997 51.9999,49.9997 C54.2089,49.9997 55.9999,48.2087 55.9999,45.9997 C55.9999,44.5017 55.1659,43.2117 53.9469,42.5257 C54.2809,41.7027 54.5779,40.8607 54.8339,39.9997 L62.9999,39.9997 C63.5499,39.9997 63.9999,39.5497 63.9999,38.9997 C63.9999,38.4497 63.5499,37.9997 62.9999,37.9997 L62.9999,37.9997 Z"
                  sketch:type="MSShapeGroup"></path>
        </g>
    </g>
</svg>
